<?xml version="1.0" standalone="no"?>
<!DOCTYPE svg PUBLIC "-//W3C//DTD SVG 20010904//EN"
 "http://www.w3.org/TR/2001/REC-SVG-20010904/DTD/svg10.dtd">
<svg version="1.0" xmlns="http://www.w3.org/2000/svg"
 width="512.000000pt" height="512.000000pt" viewBox="0 0 512.000000 512.000000"
 preserveAspectRatio="xMidYMid meet">
<metadata>
Created by potrace 1.11, written by Peter Selinger 2001-2013
</metadata>
<g transform="translate(0.000000,512.000000) scale(0.100000,-0.100000)"
fill="#000000" stroke="none">
<path d="M2255 4401 c-170 -86 -377 -193 -460 -235 -194 -102 -352 -183 -550
-286 -588 -304 -764 -398 -784 -418 -28 -27 -18 -92 30 -193 48 -100 78 -132
138 -149 24 -6 704 -10 1994 -10 2137 0 2000 -4 2055 56 13 13 43 67 69 119
37 76 44 101 39 128 -11 61 7 50 -611 367 -110 56 -231 119 -270 140 -38 21
-137 72 -220 115 -140 73 -214 111 -555 288 -74 38 -182 95 -240 125 -180 96
-199 104 -264 108 l-61 3 -310 -158z m439 -278 c12 -19 39 -37 77 -52 55 -21
108 -67 110 -94 0 -7 2 -20 4 -29 5 -27 -30 -50 -75 -50 -34 1 -49 8 -91 46
-57 52 -91 58 -131 26 -70 -54 -32 -102 124 -155 132 -44 151 -56 178 -111 27
-55 25 -109 -6 -172 -23 -47 -33 -56 -99 -87 -46 -22 -85 -49 -102 -72 -34
-42 -58 -40 -85 6 -13 23 -30 34 -74 47 -103 30 -179 129 -133 175 20 20 78
26 108 10 10 -6 36 -29 59 -52 40 -39 45 -41 88 -36 56 6 85 32 86 77 1 45
-22 62 -140 100 -147 48 -180 71 -200 140 -15 53 -13 79 9 130 21 48 84 100
122 100 11 0 42 23 69 50 54 55 67 56 102 3z"/>
<path d="M1043 2934 c-48 -12 -72 -36 -73 -72 0 -39 19 -63 68 -84 67 -30 90
-62 84 -119 -1 -3 -3 -57 -7 -120 -3 -63 -7 -143 -10 -179 -2 -36 -7 -112 -10
-170 -3 -58 -8 -134 -11 -170 -3 -36 -7 -110 -9 -165 -2 -55 -7 -134 -10 -175
-3 -41 -7 -111 -10 -155 -18 -349 -19 -352 -30 -363 -2 -3 -35 -7 -71 -9 -80
-4 -111 -17 -141 -62 -43 -63 -23 -155 44 -198 26 -17 107 -18 1758 -18 1637
0 1732 1 1758 18 85 55 86 190 1 239 -19 11 -57 19 -98 22 -37 2 -71 7 -76 12
-4 5 -11 56 -14 114 -4 58 -9 132 -11 165 -2 33 -7 121 -11 195 -3 74 -8 155
-9 180 -2 25 -6 97 -9 160 -3 63 -9 151 -11 195 -3 44 -7 112 -10 150 -2 39
-7 117 -10 175 -4 58 -8 123 -10 145 -5 67 15 100 81 132 67 32 84 64 62 110
-25 53 -44 56 -377 56 -376 0 -401 -6 -401 -91 0 -35 19 -54 83 -81 31 -14 51
-29 57 -46 9 -25 7 -149 -5 -345 -8 -117 -13 -203 -20 -355 -4 -71 -9 -137
-10 -146 -2 -9 -6 -88 -10 -175 -4 -88 -8 -172 -10 -189 -2 -16 -7 -95 -11
-175 -4 -80 -8 -152 -10 -160 -1 -8 -3 -18 -3 -21 -1 -5 -552 -6 -572 -1 -12
3 -19 50 -24 154 -8 159 -15 286 -21 362 -2 38 -7 108 -9 155 -4 86 -15 266
-20 351 -2 25 -6 107 -10 183 -3 76 -8 148 -11 160 -10 53 -5 185 8 206 7 12
39 33 70 48 49 23 59 31 64 59 8 44 -20 91 -60 100 -17 4 -168 7 -336 7 -339
-1 -373 -6 -386 -59 -12 -47 6 -77 65 -106 84 -40 84 -39 77 -218 -4 -85 -9
-180 -11 -210 -8 -104 -15 -225 -20 -335 -3 -60 -8 -137 -10 -170 -3 -34 -7
-103 -10 -155 -3 -52 -7 -131 -10 -175 -3 -44 -7 -134 -10 -200 -3 -66 -8
-129 -10 -141 -4 -20 -9 -20 -298 -20 l-294 0 -3 70 c-1 39 -3 89 -5 111 -1
22 -6 103 -9 180 -8 145 -12 208 -21 335 -3 41 -8 116 -10 165 -2 50 -6 128
-10 175 -7 86 -8 106 -19 370 -8 170 -3 186 63 211 84 31 107 96 50 143 -18
16 -43 26 -62 27 -295 5 -589 2 -624 -7z"/>
<path d="M2086 793 c-1 -2 -328 -3 -726 -3 -619 -1 -728 -3 -754 -16 -92 -44
-99 -175 -13 -238 l28 -21 1982 -1 c1570 -1 1988 1 2013 11 17 7 42 28 54 46
47 64 20 180 -48 208 -20 8 -370 12 -1280 14 -690 1 -1255 1 -1256 0z"/>
</g>
</svg>
